<svg id="svg" version="1.1" xmlns="http://www.w3.org/2000/svg" xmlns:xlink="http://www.w3.org/1999/xlink" width="400" height="400" viewBox="0, 0, 400,400"><g id="svgg"><path id="path0" d="M0.051 94.434 C 0.094 173.885,0.181 187.938,0.599 183.008 C 8.901 85.009,88.048 6.891,185.742 0.273 C 186.816 0.200,145.464 0.109,93.848 0.070 L 0.000 0.000 0.051 94.434 M213.477 0.278 C 310.368 5.646,389.612 82.816,399.199 181.137 C 399.912 188.450,399.914 188.139,399.957 94.238 L 400.000 0.000 305.566 0.074 C 253.628 0.114,212.188 0.206,213.477 0.278 M216.406 62.759 C 171.786 65.282,141.744 96.215,136.892 144.629 C 136.747 146.079,136.554 147.266,136.465 147.266 C 136.375 147.266,134.506 146.180,132.311 144.853 C 113.727 133.618,97.630 135.721,93.946 149.864 C 91.185 160.465,95.926 168.276,115.629 185.591 C 126.395 195.052,132.091 202.534,133.734 209.375 C 138.204 227.984,131.585 247.388,115.535 262.730 C 105.336 272.479,96.931 276.237,80.664 278.321 C 54.642 281.654,61.488 297.215,91.406 302.739 C 94.955 303.394,98.442 303.639,108.008 303.908 C 120.257 304.252,122.924 304.577,125.840 306.085 C 128.003 307.203,127.896 307.821,124.187 315.625 C 119.186 326.148,119.917 329.927,127.499 332.764 C 139.189 337.138,171.712 331.373,199.219 320.052 C 245.966 300.811,280.391 265.059,295.257 220.313 C 297.238 214.347,297.329 214.264,313.334 203.516 C 330.563 191.948,336.065 186.829,337.563 180.974 C 339.395 173.819,338.978 169.590,335.987 164.974 C 333.620 161.319,331.310 159.768,325.391 157.854 C 322.997 157.080,310.720 157.585,305.664 158.664 L 301.367 159.582 301.361 149.224 C 301.350 127.798,296.775 111.059,286.867 96.180 C 273.138 75.565,242.972 61.256,216.406 62.759 M202.826 107.886 C 210.718 110.251,214.464 125.157,210.464 138.281 C 203.271 161.879,180.906 159.470,180.866 135.093 C 180.838 117.804,191.567 104.513,202.826 107.886 M261.198 111.130 C 270.490 113.890,277.042 131.795,273.635 145.117 C 269.242 162.291,252.622 162.762,246.273 145.893 C 239.258 127.255,247.879 107.175,261.198 111.130 M232.998 168.383 C 240.795 171.322,245.080 182.882,242.014 192.706 C 235.364 214.010,209.466 211.904,209.230 190.039 C 209.063 174.605,220.899 163.821,232.998 168.383 M0.053 305.371 L 0.000 400.000 94.043 399.932 C 145.767 399.894,187.295 399.809,186.328 399.743 C 137.915 396.420,96.385 377.912,60.470 343.652 C 27.947 312.627,4.518 264.056,0.964 220.291 C 0.835 218.692,0.588 215.889,0.417 214.063 C 0.246 212.236,0.083 253.325,0.053 305.371 M399.609 213.833 C 399.609 221.137,396.006 241.907,392.566 254.430 C 370.389 335.169,296.088 395.319,213.086 399.728 C 211.797 399.796,253.325 399.886,305.371 399.926 L 400.000 400.000 400.000 306.250 C 400.000 254.688,399.912 212.500,399.805 212.500 C 399.697 212.500,399.609 213.100,399.609 213.833 " stroke="none" fill="#fbfbfb" fill-rule="evenodd"></path><path id="path1" d="M187.500 0.421 C 87.266 5.393,4.749 89.096,0.376 190.234 C -5.577 327.918,123.036 429.902,255.233 392.325 C 365.053 361.110,426.079 243.438,388.914 134.560 C 359.715 49.022,279.861 -4.160,187.500 0.421 M232.422 63.487 C 276.428 70.624,302.184 103.213,301.491 150.879 C 301.423 155.552,301.471 159.376,301.598 159.375 C 301.725 159.375,303.483 159.035,305.504 158.620 C 321.454 155.343,329.954 157.094,336.189 164.941 C 339.195 168.725,339.611 173.800,337.544 181.477 C 336.042 187.055,330.648 191.987,312.891 204.017 C 296.525 215.105,297.595 214.031,294.711 222.266 C 276.614 273.944,233.425 312.413,175.680 328.289 C 149.402 335.513,129.787 336.349,123.327 330.519 C 119.616 327.171,119.813 324.040,124.303 315.039 C 126.974 309.683,127.556 307.953,126.935 307.205 C 125.087 304.978,121.103 304.318,107.031 303.909 C 89.622 303.403,80.653 301.474,72.071 296.391 C 58.282 288.224,62.957 280.393,83.203 277.748 C 96.411 276.022,104.362 272.489,113.968 264.076 C 133.496 246.974,140.968 217.977,130.043 201.688 C 125.443 194.828,123.762 192.970,115.492 185.608 C 101.385 173.050,95.424 166.066,94.011 160.442 C 90.523 146.557,100.272 135.547,114.295 137.533 C 120.334 138.388,131.661 143.288,135.608 146.752 C 136.349 147.403,136.486 146.994,136.939 142.773 C 141.813 97.360,171.007 66.596,212.891 62.740 C 216.354 62.421,228.781 62.896,232.422 63.487 M196.385 107.823 C 179.799 111.991,174.844 146.479,189.826 153.471 C 200.195 158.310,210.785 146.433,211.903 128.711 C 212.773 114.909,205.759 105.468,196.385 107.823 M254.254 111.512 C 239.946 116.778,240.711 149.883,255.298 156.709 C 265.832 161.639,274.219 152.859,274.219 136.902 C 274.219 120.199,264.440 107.763,254.254 111.512 M223.838 167.792 C 207.628 172.311,203.742 199.168,218.311 205.985 C 234.021 213.337,249.051 191.898,240.119 174.878 C 237.170 169.258,229.911 166.099,223.838 167.792 " stroke="none" fill="#13132c" fill-rule="evenodd"></path><path id="path2" d="" stroke="none" fill="#666878" fill-rule="evenodd"></path><path id="path3" d="M191.504 0.269 C 191.880 0.368,192.495 0.368,192.871 0.269 C 193.247 0.171,192.939 0.091,192.188 0.091 C 191.436 0.091,191.128 0.171,191.504 0.269 M206.348 0.269 C 206.724 0.368,207.339 0.368,207.715 0.269 C 208.091 0.171,207.783 0.091,207.031 0.091 C 206.279 0.091,205.972 0.171,206.348 0.269 M0.112 193.164 C 0.115 194.238,0.191 194.631,0.280 194.038 C 0.370 193.444,0.368 192.565,0.275 192.084 C 0.182 191.604,0.109 192.090,0.112 193.164 M399.708 193.945 C 399.712 194.805,399.792 195.110,399.886 194.624 C 399.979 194.138,399.976 193.435,399.878 193.062 C 399.780 192.688,399.704 193.086,399.708 193.945 M0.091 205.078 C 0.091 205.830,0.171 206.138,0.269 205.762 C 0.368 205.386,0.368 204.771,0.269 204.395 C 0.171 204.019,0.091 204.326,0.091 205.078 M399.700 205.469 C 399.700 206.221,399.780 206.528,399.879 206.152 C 399.977 205.776,399.977 205.161,399.879 204.785 C 399.780 204.409,399.700 204.717,399.700 205.469 M191.504 399.879 C 191.880 399.977,192.495 399.977,192.871 399.879 C 193.247 399.780,192.939 399.700,192.188 399.700 C 191.436 399.700,191.128 399.780,191.504 399.879 M205.566 399.879 C 205.942 399.977,206.558 399.977,206.934 399.879 C 207.310 399.780,207.002 399.700,206.250 399.700 C 205.498 399.700,205.190 399.780,205.566 399.879 " stroke="none" fill="#4c4c5a" fill-rule="evenodd"></path><path id="path4" d="M187.988 0.269 C 188.364 0.368,188.979 0.368,189.355 0.269 C 189.731 0.171,189.424 0.091,188.672 0.091 C 187.920 0.091,187.612 0.171,187.988 0.269 M274.357 137.305 C 274.356 139.238,274.422 140.079,274.504 139.172 C 274.586 138.265,274.587 136.683,274.506 135.656 C 274.426 134.629,274.359 135.371,274.357 137.305 M317.090 157.317 C 318.003 157.400,319.497 157.400,320.410 157.317 C 321.323 157.235,320.576 157.168,318.750 157.168 C 316.924 157.168,316.177 157.235,317.090 157.317 M209.113 189.648 C 209.114 191.152,209.185 191.720,209.269 190.909 C 209.354 190.099,209.353 188.868,209.266 188.175 C 209.180 187.481,209.111 188.145,209.113 189.648 M399.708 189.648 C 399.712 190.508,399.792 190.813,399.886 190.327 C 399.979 189.842,399.976 189.138,399.878 188.765 C 399.780 188.392,399.704 188.789,399.708 189.648 M0.112 209.180 C 0.115 210.254,0.191 210.647,0.280 210.053 C 0.370 209.459,0.368 208.581,0.275 208.100 C 0.182 207.620,0.109 208.105,0.112 209.180 M399.726 210.547 C 399.726 211.729,399.800 212.212,399.889 211.621 C 399.979 211.030,399.979 210.063,399.889 209.473 C 399.800 208.882,399.726 209.365,399.726 210.547 M57.617 341.016 C 58.675 342.090,59.629 342.969,59.736 342.969 C 59.844 342.969,59.066 342.090,58.008 341.016 C 56.950 339.941,55.996 339.063,55.889 339.063 C 55.781 339.063,56.559 339.941,57.617 341.016 " stroke="none" fill="#848c94" fill-rule="evenodd"></path></g></svg>