<svg id="svg" version="1.1" xmlns="http://www.w3.org/2000/svg" xmlns:xlink="http://www.w3.org/1999/xlink" width="400" height="400" viewBox="0, 0, 400,400"><g id="svgg"><path id="path0" d="M187.500 0.421 C 87.266 5.393,4.749 89.096,0.376 190.234 C -5.577 327.918,123.036 429.902,255.233 392.325 C 365.053 361.110,426.079 243.438,388.914 134.560 C 359.715 49.022,279.861 -4.160,187.500 0.421 M232.422 63.487 C 276.428 70.624,302.184 103.213,301.491 150.879 C 301.423 155.552,301.471 159.376,301.598 159.375 C 301.725 159.375,303.483 159.035,305.504 158.620 C 321.454 155.343,329.954 157.094,336.189 164.941 C 339.195 168.725,339.611 173.800,337.544 181.477 C 336.042 187.055,330.648 191.987,312.891 204.017 C 296.525 215.105,297.595 214.031,294.711 222.266 C 276.614 273.944,233.425 312.413,175.680 328.289 C 149.402 335.513,129.787 336.349,123.327 330.519 C 119.616 327.171,119.813 324.040,124.303 315.039 C 126.974 309.683,127.556 307.953,126.935 307.205 C 125.083 304.973,121.098 304.314,107.031 303.912 C 89.667 303.417,80.663 301.480,72.071 296.391 C 58.282 288.224,62.957 280.393,83.203 277.748 C 96.411 276.022,104.362 272.489,113.968 264.076 C 133.496 246.974,140.968 217.977,130.043 201.688 C 125.443 194.828,123.762 192.970,115.492 185.608 C 101.385 173.050,95.424 166.066,94.011 160.442 C 90.521 146.547,100.262 135.546,114.295 137.533 C 120.334 138.388,131.661 143.288,135.608 146.752 C 136.349 147.403,136.486 146.994,136.939 142.773 C 141.813 97.360,171.007 66.596,212.891 62.740 C 216.354 62.421,228.781 62.896,232.422 63.487 M196.385 107.823 C 179.799 111.991,174.844 146.479,189.826 153.471 C 200.195 158.310,210.785 146.433,211.903 128.711 C 212.773 114.909,205.759 105.468,196.385 107.823 M254.254 111.512 C 239.946 116.778,240.711 149.883,255.298 156.709 C 265.832 161.639,274.219 152.859,274.219 136.902 C 274.219 120.199,264.440 107.763,254.254 111.512 M223.838 167.792 C 207.628 172.311,203.742 199.168,218.311 205.985 C 234.021 213.337,249.051 191.898,240.119 174.878 C 237.170 169.258,229.911 166.099,223.838 167.792 " stroke="none" fill="#13132c" fill-rule="evenodd"></path><path id="path1" d="" stroke="none" fill="#646676" fill-rule="evenodd"></path><path id="path2" d="M274.357 137.305 C 274.356 139.238,274.422 140.079,274.504 139.172 C 274.586 138.265,274.587 136.683,274.506 135.656 C 274.426 134.629,274.359 135.371,274.357 137.305 M317.090 157.317 C 318.003 157.400,319.497 157.400,320.410 157.317 C 321.323 157.235,320.576 157.168,318.750 157.168 C 316.924 157.168,316.177 157.235,317.090 157.317 M209.116 189.453 C 209.116 191.064,209.185 191.724,209.269 190.918 C 209.353 190.112,209.353 188.794,209.269 187.988 C 209.185 187.183,209.116 187.842,209.116 189.453 " stroke="none" fill="#8c8c9c" fill-rule="evenodd"></path><path id="path3" d="M191.504 0.269 C 191.880 0.368,192.495 0.368,192.871 0.269 C 193.247 0.171,192.939 0.091,192.188 0.091 C 191.436 0.091,191.128 0.171,191.504 0.269 M206.348 0.269 C 206.724 0.368,207.339 0.368,207.715 0.269 C 208.091 0.171,207.783 0.091,207.031 0.091 C 206.279 0.091,205.972 0.171,206.348 0.269 M0.112 193.164 C 0.115 194.238,0.191 194.631,0.280 194.038 C 0.370 193.444,0.368 192.565,0.275 192.084 C 0.182 191.604,0.109 192.090,0.112 193.164 M399.708 193.945 C 399.712 194.805,399.792 195.110,399.886 194.624 C 399.979 194.138,399.976 193.435,399.878 193.062 C 399.780 192.688,399.704 193.086,399.708 193.945 M0.091 205.078 C 0.091 205.830,0.171 206.138,0.269 205.762 C 0.368 205.386,0.368 204.771,0.269 204.395 C 0.171 204.019,0.091 204.326,0.091 205.078 M399.700 205.469 C 399.700 206.221,399.780 206.528,399.879 206.152 C 399.977 205.776,399.977 205.161,399.879 204.785 C 399.780 204.409,399.700 204.717,399.700 205.469 M205.566 399.879 C 205.942 399.977,206.558 399.977,206.934 399.879 C 207.310 399.780,207.002 399.700,206.250 399.700 C 205.498 399.700,205.190 399.780,205.566 399.879 " stroke="none" fill="#4c4c59" fill-rule="evenodd"></path></g></svg>