<svg id="svg" version="1.1" xmlns="http://www.w3.org/2000/svg" xmlns:xlink="http://www.w3.org/1999/xlink" width="400" height="400" viewBox="0, 0, 400,400"><g id="svgg"><path id="path0" d="M216.016 62.747 C 172.040 65.425,142.642 95.302,137.080 142.969 C 136.816 145.225,136.556 147.128,136.500 147.197 C 136.445 147.267,134.582 146.225,132.360 144.882 C 114.477 134.070,101.204 135.028,94.681 147.602 C 93.979 148.954,93.660 150.342,93.487 152.795 C 92.755 163.175,96.782 168.963,117.410 187.175 C 132.255 200.281,136.997 211.463,134.597 227.706 C 130.818 253.278,109.520 274.378,84.105 277.729 C 64.851 280.267,59.035 286.615,68.963 294.257 C 77.007 300.450,88.671 303.346,107.813 303.903 C 129.108 304.523,129.524 304.858,123.701 316.701 C 121.078 322.035,120.437 324.513,121.069 326.863 C 123.509 335.921,142.124 336.731,172.121 329.085 C 232.230 313.762,278.077 273.211,295.319 220.117 C 297.033 214.837,298.062 213.886,313.054 203.737 C 335.089 188.817,338.409 184.930,338.457 173.989 C 338.516 160.733,327.403 154.854,308.594 158.190 C 306.123 158.629,303.486 159.090,302.734 159.215 L 301.367 159.443 301.353 149.155 C 301.304 111.827,286.866 86.235,257.586 71.570 C 245.345 65.440,228.947 61.960,216.016 62.747 M203.711 108.341 C 210.785 111.642,213.977 123.983,210.944 136.307 C 204.526 162.380,179.987 160.159,180.979 133.594 C 181.628 116.202,193.144 103.410,203.711 108.341 M262.631 111.687 C 269.854 115.184,275.360 128.257,274.439 139.723 C 272.484 164.047,249.870 164.584,244.708 140.430 C 240.783 122.067,250.821 105.970,262.631 111.687 M232.989 168.386 C 246.786 173.548,245.875 198.830,231.641 205.788 C 219.685 211.632,208.085 202.478,209.140 188.033 C 210.190 173.666,221.718 164.169,232.989 168.386 " stroke="none" fill="#d3d3d3" fill-rule="evenodd"></path><path id="path1" d="M187.305 0.393 C 93.372 5.716,14.849 78.482,1.981 172.130 C -13.132 282.117,64.227 384.444,173.047 398.405 C 294.034 413.927,399.613 321.513,399.714 200.000 C 399.811 83.744,304.072 -6.224,187.305 0.393 M232.092 63.461 C 275.823 70.087,301.713 102.439,301.424 150.098 C 301.393 155.200,301.471 159.375,301.598 159.375 C 301.725 159.375,303.483 159.035,305.504 158.620 C 321.454 155.343,329.954 157.094,336.189 164.941 C 339.195 168.725,339.611 173.800,337.544 181.477 C 336.042 187.055,330.648 191.987,312.891 204.017 C 296.525 215.105,297.529 214.097,294.701 222.266 C 274.964 279.271,221.178 322.202,156.445 332.619 C 127.371 337.298,116.292 332.587,122.832 318.326 C 128.043 306.965,127.913 307.561,125.489 306.141 C 123.063 304.720,119.312 304.266,107.031 303.909 C 89.622 303.403,80.653 301.474,72.071 296.391 C 58.661 288.448,63.055 280.305,82.031 277.935 C 96.400 276.140,103.977 272.830,114.172 263.895 C 133.953 246.557,140.957 217.995,129.593 201.014 C 125.336 194.654,123.945 193.134,115.529 185.641 C 101.118 172.812,95.284 165.926,93.984 160.209 C 90.796 146.193,100.339 135.557,114.324 137.537 C 120.224 138.373,131.754 143.368,135.620 146.763 C 136.368 147.420,136.226 147.950,137.321 140.430 C 143.991 94.651,170.850 67.107,213.086 62.735 C 216.081 62.425,228.347 62.893,232.092 63.461 M196.385 107.823 C 181.139 111.654,174.883 144.165,187.812 152.380 C 197.115 158.291,206.959 151.489,210.750 136.528 C 215.068 119.488,207.796 104.956,196.385 107.823 M253.672 111.744 C 239.886 117.048,241.079 150.056,255.298 156.709 C 265.832 161.639,274.219 152.859,274.219 136.902 C 274.219 119.779,264.314 107.651,253.672 111.744 M224.560 167.533 C 208.045 170.999,203.487 199.048,218.311 205.985 C 234.027 213.340,249.054 191.904,240.119 174.878 C 237.355 169.612,230.369 166.314,224.560 167.533 " stroke="none" fill="#13132c" fill-rule="evenodd"></path><path id="path2" d="M338.763 174.219 C 338.763 174.971,338.843 175.278,338.941 174.902 C 339.039 174.526,339.039 173.911,338.941 173.535 C 338.843 173.159,338.763 173.467,338.763 174.219 M399.700 193.750 C 399.700 194.502,399.780 194.810,399.879 194.434 C 399.977 194.058,399.977 193.442,399.879 193.066 C 399.780 192.690,399.700 192.998,399.700 193.750 M399.700 205.469 C 399.700 206.221,399.780 206.528,399.879 206.152 C 399.977 205.776,399.977 205.161,399.879 204.785 C 399.780 204.409,399.700 204.717,399.700 205.469 " stroke="none" fill="#555769" fill-rule="evenodd"></path><path id="path3" d="M274.353 137.305 C 274.354 139.023,274.423 139.678,274.505 138.759 C 274.588 137.840,274.587 136.434,274.503 135.634 C 274.419 134.834,274.351 135.586,274.353 137.305 M316.313 157.308 C 316.799 157.401,317.502 157.397,317.876 157.300 C 318.249 157.202,317.852 157.125,316.992 157.130 C 316.133 157.134,315.827 157.214,316.313 157.308 M209.113 189.648 C 209.114 191.152,209.185 191.720,209.269 190.909 C 209.354 190.099,209.353 188.868,209.266 188.175 C 209.180 187.481,209.111 188.145,209.113 189.648 " stroke="none" fill="#7c7c84" fill-rule="evenodd"></path><path id="path4" d="" stroke="none" fill="#717484" fill-rule="evenodd"></path></g></svg>